<?xml version="1.0" encoding="iso-8859-1"?>
<!-- Generator: Adobe Illustrator 19.0.0, SVG Export Plug-In . SVG Version: 6.00 Build 0)  -->
<svg version="1.1" id="Layer_1" xmlns="http://www.w3.org/2000/svg" xmlns:xlink="http://www.w3.org/1999/xlink" x="0px" y="0px"
	 viewBox="0 0 512.001 512.001" style="enable-background:new 0 0 512.001 512.001;" xml:space="preserve">
<g>
	<g>
		<path d="M283.839,70.349h-3.072c-5.633,0-10.199,4.566-10.199,10.199c0,5.633,4.566,10.199,10.199,10.199h3.072
			c5.633,0,10.199-4.566,10.199-10.199C294.038,74.915,289.472,70.349,283.839,70.349z"/>
	</g>
</g>
<g>
	<g>
		<path d="M244.55,70.349H115.69c-5.633,0-10.199,4.566-10.199,10.199c0,5.633,4.566,10.199,10.199,10.199h128.86
			c5.633,0,10.199-4.566,10.199-10.199C254.749,74.915,250.183,70.349,244.55,70.349z"/>
	</g>
</g>
<g>
	<g>
		<path d="M283.84,134.906H115.69c-5.633,0-10.199,4.566-10.199,10.199c0,5.633,4.566,10.199,10.199,10.199h168.15
			c5.633,0,10.199-4.566,10.199-10.199C294.04,139.472,289.473,134.906,283.84,134.906z"/>
	</g>
</g>
<g>
	<g>
		<path d="M283.84,199.464H115.69c-5.633,0-10.199,4.566-10.199,10.199c0,5.633,4.566,10.199,10.199,10.199h168.15
			c5.633,0,10.199-4.566,10.199-10.199C294.04,204.03,289.473,199.464,283.84,199.464z"/>
	</g>
</g>
<g>
	<g>
		<path d="M456.285,494.589l-88.805-88.806c14.751-17.948,23.618-40.905,23.618-65.896c0-35.137-17.528-66.253-44.297-85.075V10.199
			C346.801,4.566,342.235,0,336.602,0H62.929c-5.633,0-10.199,4.566-10.199,10.199v398.927c0,5.633,4.566,10.199,10.199,10.199
			h157.283c18.099,15.277,41.464,24.501,66.948,24.501c24.991,0,47.948-8.867,65.896-23.618l88.805,88.807
			c1.992,1.992,4.602,2.987,7.212,2.987s5.221-0.995,7.212-2.987C460.267,505.03,460.267,498.572,456.285,494.589z M73.128,398.928
			V20.398h253.275v223.249c-12.116-4.959-25.364-7.699-39.243-7.699c-27.412,0-52.376,10.672-70.967,28.073H115.69
			c-5.633,0-10.199,4.566-10.199,10.199c0,5.633,4.566,10.199,10.199,10.199h83.606c-8.267,13.05-13.709,28.058-15.459,44.159
			H115.69c-5.633,0-10.199,4.566-10.199,10.199c0,5.633,4.566,10.199,10.199,10.199h67.932c1.605,18.44,8.045,35.516,18.044,49.95
			H73.128z M287.158,423.427c-46.065,0-83.541-37.476-83.541-83.541s37.476-83.541,83.541-83.541
			c46.065,0,83.541,37.476,83.541,83.541S333.223,423.427,287.158,423.427z"/>
	</g>
</g>
<g>
</g>
<g>
</g>
<g>
</g>
<g>
</g>
<g>
</g>
<g>
</g>
<g>
</g>
<g>
</g>
<g>
</g>
<g>
</g>
<g>
</g>
<g>
</g>
<g>
</g>
<g>
</g>
<g>
</g>
</svg>
