<?xml version="1.0" encoding="utf-8"?>
<!-- Svg Vector Icons : http://www.onlinewebfonts.com/icon -->
<!DOCTYPE svg PUBLIC "-//W3C//DTD SVG 1.1//EN" "http://www.w3.org/Graphics/SVG/1.1/DTD/svg11.dtd">
<svg version="1.1" xmlns="http://www.w3.org/2000/svg" xmlns:xlink="http://www.w3.org/1999/xlink" x="0px" y="0px" viewBox="0 0 1000 1000" enable-background="new 0 0 1000 1000" xml:space="preserve">
<metadata> Svg Vector Icons : http://www.onlinewebfonts.com/icon </metadata>
<g><path d="M452.8,133.5V866H990V133.5H452.8z M941.2,768.4H501.7v-97.7h439.5V768.4L941.2,768.4z M941.2,621.8H501.7v-97.7h439.5V621.8L941.2,621.8z M941.2,475.3H501.7v-97.7h439.5V475.3L941.2,475.3z M941.2,328.8H501.7v-97.7h439.5V328.8L941.2,328.8z"/><path d="M203.2,431c74.1,0,134.1-57.6,134.1-128.7c0-71.2-60-128.8-134.1-128.8c-74.1,0-134,57.6-134,128.8C69.2,373.4,129.1,431,203.2,431z M203.3,497.7C96.6,497.7,10,580,10,681.7v184.9h386.6V681.7C396.6,580,310,497.7,203.3,497.7z"/></g>
</svg>