<?xml version="1.0" encoding="utf-8"?>
<!-- Svg Vector Icons : http://www.onlinewebfonts.com/icon -->
<!DOCTYPE svg PUBLIC "-//W3C//DTD SVG 1.1//EN" "http://www.w3.org/Graphics/SVG/1.1/DTD/svg11.dtd">
<svg version="1.1" xmlns="http://www.w3.org/2000/svg" xmlns:xlink="http://www.w3.org/1999/xlink" x="0px" y="0px" viewBox="0 0 1000 1000" enable-background="new 0 0 1000 1000" xml:space="preserve">
<metadata> Svg Vector Icons : http://www.onlinewebfonts.com/icon </metadata>
<g><path d="M500,10C229.4,10,10,229.4,10,500c0,85.2,22.4,164.9,60.7,234.7c5.2,18.8,21.7,32.8,42.2,32.8c24.6,0,44.5-19.9,44.5-44.5l-0.4-4.1c0-8.7-3.1-16.3-7.4-23.2c-32.7-58.1-51.8-124.9-51.8-196.3c0-221.8,179.8-401.6,401.6-401.6c221.8,0,401.6,179.8,401.6,401.6c0,221.8-179.8,401.6-401.6,401.6c-88.5,0-170-29-236.4-77.5c-8.1-8.6-19.5-14.1-32.2-14.1c-24.6,0-44.5,19.9-44.5,44.5l0.4,4.1c0,20,13.4,36.3,31.6,41.9C297.9,956.3,394.9,990,500,990c270.6,0,490-219.4,490-490S770.6,10,500,10z M364.2,605.4l-90.4,25.4c20,106.8,83.2,165.3,189.2,175.9v61.1h59.3v-60.7c114.7-8.3,176.3-62.9,183.5-165c3.6-88.8-57.7-148.3-183.5-178.3V304.3c42,9.9,68.5,42.3,79.1,98l90.4-25.4c-18.4-95.3-75-148-169.4-158.6v-53H463v52.8c-107.2,9.8-164.1,63.2-169.4,161.6c-7.1,78,49.4,131.7,169.4,161.3v182.5C403.6,713.1,370.4,674.1,364.2,605.4z M522.3,555.7c68.1,20.3,98.4,48.1,90.4,83.6c0,52.7-30.3,81.4-90.4,86.4V555.7z M383.9,379.8c1.6-44,28.1-69.5,79.1-76.8v145.6C407.5,430.9,380.8,408,383.9,379.8z"/></g>
</svg>