<?xml version="1.0" encoding="iso-8859-1"?>
<!-- Generator: Adobe Illustrator 19.0.0, SVG Export Plug-In . SVG Version: 6.00 Build 0)  -->
<svg version="1.1" id="Layer_1" xmlns="http://www.w3.org/2000/svg" xmlns:xlink="http://www.w3.org/1999/xlink" x="0px" y="0px"
	 viewBox="0 0 393.568 393.568" style="enable-background:new 0 0 393.568 393.568;" xml:space="preserve">
<circle style="fill:#FBD303;" cx="196.784" cy="196.784" r="196.784"/>
<path style="fill:#FCFCFD;" d="M312.824,123.152c-5.495,0-10.99,0.776-16.226,1.81c-4.719-26.44-29.091-44.8-55.531-42.214
	c-15.192-27.281-44.283-45.834-77.834-45.834c-48.226,0-87.531,38.529-89.083,86.174c-34.844,3.426-62.384,32.776-62.384,68.655
	c0,38.012,30.901,68.913,68.913,68.913h232.145c38.012,0,68.913-30.901,68.913-68.913S350.836,123.152,312.824,123.152z"/>
<path style="fill:#646B79;" d="M265.438,123.152H128.129c-15.709,0-28.315,12.606-28.315,28.315s12.606,28.315,28.315,28.315
	h137.568c15.709,0,28.315-12.606,28.315-28.315S281.147,123.152,265.438,123.152z"/>
<circle style="fill:#F0582F;" cx="132.848" cy="151.208" r="9.697"/>
<rect x="189.737" y="141.511" style="fill:#6EB1E1;" width="73.891" height="19.394"/>
<path style="fill:#646B79;" d="M265.438,185.535H128.129c-15.709,0-28.315,12.606-28.315,28.315s12.606,28.315,28.315,28.315
	h137.568c15.709,0,28.315-12.606,28.315-28.315C293.754,198.077,281.147,185.535,265.438,185.535z"/>
<circle style="fill:#F0582F;" cx="132.848" cy="213.786" r="9.697"/>
<rect x="189.737" y="204.089" style="fill:#6EB1E1;" width="73.891" height="19.394"/>
<path style="fill:#646B79;" d="M265.438,247.855H128.129c-15.709,0-28.315,12.606-28.315,28.315s12.606,28.315,28.315,28.315
	h137.568c15.709,0,28.315-12.606,28.315-28.315C293.754,260.719,281.147,247.855,265.438,247.855z"/>
<circle style="fill:#F0582F;" cx="132.848" cy="276.17" r="9.697"/>
<rect x="189.737" y="266.473" style="fill:#6EB1E1;" width="73.891" height="19.394"/>
<polygon style="fill:#DDDEE6;" points="203.572,339.846 203.572,304.485 189.996,304.485 189.996,339.846 133.883,339.846 
	133.883,353.487 259.426,353.487 259.426,339.846 "/>
<polygon style="fill:#4F5565;" points="206.739,336.679 206.739,327.758 186.828,327.758 186.828,336.679 179.2,336.679 
	179.2,356.59 215.402,356.59 215.402,336.679 "/>
<g>
</g>
<g>
</g>
<g>
</g>
<g>
</g>
<g>
</g>
<g>
</g>
<g>
</g>
<g>
</g>
<g>
</g>
<g>
</g>
<g>
</g>
<g>
</g>
<g>
</g>
<g>
</g>
<g>
</g>
</svg>
