<?xml version="1.0" encoding="iso-8859-1"?>
<!-- Generator: Adobe Illustrator 19.0.0, SVG Export Plug-In . SVG Version: 6.00 Build 0)  -->
<svg version="1.1" id="Layer_1" xmlns="http://www.w3.org/2000/svg" xmlns:xlink="http://www.w3.org/1999/xlink" x="0px" y="0px"
	 viewBox="0 0 512.001 512.001" style="enable-background:new 0 0 512.001 512.001;" xml:space="preserve">
<path style="fill:#CAD1D8;" d="M24,16h464c13.254,0,24,10.745,24,24v432c0,13.254-10.745,24-24,24H24C10.745,496,0,485.255,0,472V40
	C0,26.745,10.745,16,24,16z"/>
<path style="fill:#FFFFFF;" d="M24,80h464c4.418,0,8,3.582,8,8v384c0,4.418-3.582,8-8,8H24c-4.418,0-8-3.582-8-8V88
	C16,83.582,19.582,80,24,80z"/>
<g>
	<circle style="fill:#9BA7AF;" cx="24.002" cy="47.995" r="7.998"/>
	<circle style="fill:#9BA7AF;" cx="56.002" cy="47.995" r="7.998"/>
	<circle style="fill:#9BA7AF;" cx="88.002" cy="47.995" r="7.998"/>
</g>
<path style="fill:#E2E5E7;" d="M120,40h368c4.418,0,8,3.582,8,8l0,0c0,4.418-3.582,8-8,8H120c-4.418,0-8-3.582-8-8l0,0
	C112,43.582,115.582,40,120,40z"/>
<g>
	<path style="fill:#CAD1D8;" d="M152.001,376h208c4.418,0,8,3.582,8,8l0,0c0,4.418-3.582,8-8,8h-208c-4.418,0-8.001-3.582-8.001-8
		l0,0C144,379.582,147.582,376,152.001,376z"/>
	<path style="fill:#CAD1D8;" d="M192,408h128c4.418,0,8,3.582,8,8l0,0c0,4.418-3.582,8-8,8H192c-4.418,0-8.001-3.582-8.001-8l0,0
		C184.001,411.582,187.582,408,192,408z"/>
</g>
<circle style="fill:#EE2C39;" cx="256" cy="231.998" r="103.998"/>
<path style="fill:#CC202C;" d="M344,216.001c-8.837,0-16,7.163-16,16c0,39.764-32.235,72.001-72,72.001c-8.837,0-16,7.163-16,16
	c0,8.837,7.163,16,16,16c57.437,0,104-46.562,104-104.001C360,223.164,352.836,216.001,344,216.001z"/>
<path style="fill:#F16351;" d="M168.001,248.001c8.837,0,16-7.163,16-16c0-39.764,32.235-72.001,72.001-72.001
	c8.837,0,16-7.163,16-16c0-8.837-7.164-16-16.001-16c-57.437,0-104.001,46.562-104.001,104.001
	C152.001,240.836,159.164,248.001,168.001,248.001z"/>
<path style="fill:#FFFFFF;" d="M299.36,252.72L299.36,252.72l-20.72-20.72l20.64-20.64l0,0c6.252-6.252,6.252-16.388,0-22.64
	c-6.252-6.252-16.388-6.252-22.64,0l0,0l0,0L256,209.36l-20.64-20.64l0,0c-6.252-6.252-16.388-6.252-22.64,0s-6.252,16.388,0,22.64
	l0,0l20.64,20.64l-20.72,20.72l0,0c-6.252,6.252-6.252,16.388,0,22.64c6.252,6.252,16.388,6.252,22.64,0l0,0L256,254.64l20.72,20.72
	l0,0c6.252,6.252,16.388,6.252,22.64,0C305.611,269.109,305.611,258.972,299.36,252.72z"/>
<g>
	<path style="fill:#CC202C;" d="M276.64,275.28L256,254.64l-20.72,20.72l0,0c-4.711,4.657-11.804,5.929-17.84,3.2
		c0.767,1.781,1.852,3.407,3.2,4.799c6.245,6.252,16.375,6.257,22.627,0.013c0.004-0.004,0.008-0.008,0.013-0.013l0,0l20.72-20.72
		L276.64,275.28L276.64,275.28z"/>
	<path style="fill:#CC202C;" d="M299.28,211.28L299.28,211.28l-20.64,20.72l20.72,20.72l0,0c5.945,6.538,5.464,16.657-1.073,22.602
		c-6.087,5.536-15.38,5.552-21.487,0.038l8,8l0,0c6.252,6.252,16.388,6.252,22.64,0c6.252-6.252,6.252-16.388,0-22.64l0,0l0,0
		l-20.799-20.72l20.72-20.72l0,0c6.214-6.282,6.161-16.412-0.121-22.627c-1.355-1.342-2.94-2.429-4.678-3.213
		C305.269,199.491,303.964,206.587,299.28,211.28z"/>
</g>
<g>
	<path style="fill:#DDDFE1;" d="M268.64,267.28l-13.6-13.6c-3.86-3.888-10.141-3.911-14.028-0.051
		c-0.017,0.017-0.034,0.034-0.051,0.051l-13.68,13.68l0,0c-4.711,4.657-11.804,5.929-17.84,3.2c0.767,1.781,1.852,3.407,3.2,4.799
		c6.245,6.252,16.375,6.257,22.627,0.013c0.004-0.004,0.008-0.008,0.013-0.013l0,0L256,254.64L268.64,267.28L268.64,267.28z"/>
	<path style="fill:#DDDFE1;" d="M291.28,203.28L291.28,203.28l-13.68,13.68c-3.855,3.871-3.855,10.129,0,14l13.68,13.68l0,0
		c5.946,6.538,5.464,16.657-1.073,22.602c-6.087,5.536-15.38,5.552-21.487,0.038l8,8l0,0c6.252,6.252,16.388,6.252,22.64,0
		c6.252-6.252,6.252-16.388,0-22.64l0,0l0,0L278.641,232l20.72-20.72l0,0c6.214-6.282,6.161-16.412-0.121-22.627
		c-1.355-1.342-2.94-2.429-4.678-3.213C297.269,191.492,295.964,198.588,291.28,203.28z"/>
</g>
<g>
</g>
<g>
</g>
<g>
</g>
<g>
</g>
<g>
</g>
<g>
</g>
<g>
</g>
<g>
</g>
<g>
</g>
<g>
</g>
<g>
</g>
<g>
</g>
<g>
</g>
<g>
</g>
<g>
</g>
</svg>
