<?xml version="1.0" encoding="iso-8859-1"?>
<!-- Generator: Adobe Illustrator 19.0.0, SVG Export Plug-In . SVG Version: 6.00 Build 0)  -->
<svg version="1.1" id="Layer_1" xmlns="http://www.w3.org/2000/svg" xmlns:xlink="http://www.w3.org/1999/xlink" x="0px" y="0px"
	 viewBox="0 0 508.609 508.609" style="enable-background:new 0 0 508.609 508.609;" xml:space="preserve">
<path style="fill:#9D90C5;" d="M336.53,290.246H171.74c-75.613,0-136.646,61.372-136.646,136.646v81.717h438.421v-81.717
	C473.515,351.279,412.143,290.246,336.53,290.246z"/>
<rect x="193.102" y="290.246" style="fill:#FF667C;" width="122.405" height="218.363"/>
<rect x="233.452" y="312.964" style="fill:#56545F;" width="41.706" height="164.45"/>
<g>
	<circle style="fill:#FACCB4;" cx="166.315" cy="167.841" r="35.942"/>
	<circle style="fill:#FACCB4;" cx="341.955" cy="167.841" r="35.942"/>
</g>
<ellipse style="fill:#EEB490;" cx="254.135" cy="282.787" rx="61.033" ry="51.878"/>
<path style="fill:#F1F3F7;" d="M397.224,176.657c0-11.868-5.425-22.718-13.902-29.499c8.477-7.121,13.902-17.632,13.902-29.499
	c0-17.971-12.207-32.89-28.821-37.298C351.449,33.229,306.691,0,254.135,0s-97.314,33.229-114.268,80.021
	c-16.615,4.408-28.821,19.327-28.821,37.298c0,11.868,5.425,22.718,13.902,29.499c-8.477,7.121-13.902,17.632-13.902,29.499
	c0,11.868,5.425,22.718,13.902,29.499c-8.477,7.121-13.902,17.632-13.902,29.499s5.425,22.718,13.902,29.499
	c-8.477,7.121-13.902,17.632-13.902,29.499s5.425,22.718,13.902,29.499c-8.477,7.121-13.902,17.632-13.902,29.499
	s5.425,22.718,13.902,29.499c-8.477,7.121-13.902,17.632-13.902,29.499c0,21.362,17.293,38.654,38.654,38.654
	c4.408,0,8.477-0.678,12.207-2.034V201.07c22.379,25.77,55.269,42.384,92.228,42.384s69.849-16.276,92.228-42.384v248.88
	c3.73,1.356,8.138,2.034,12.207,2.034c21.362,0,38.654-17.293,38.654-38.654c0-11.868-5.425-22.718-13.902-29.499
	c8.477-7.121,13.902-17.632,13.902-29.499s-5.425-22.718-13.902-29.499c8.477-7.121,13.902-17.632,13.902-29.499
	s-5.425-22.718-13.902-29.499c8.477-7.121,13.902-17.632,13.902-29.499s-5.425-22.718-13.902-29.499
	C391.799,199.036,397.224,188.524,397.224,176.657z"/>
<path style="fill:#FACCB4;" d="M295.502,107.825c-17.293,0-32.212,8.477-41.367,21.701c-9.155-12.885-24.413-21.701-41.367-21.701
	c-28.143,0-50.522,22.718-50.522,50.522v45.436c0,50.183,39.332,92.567,89.515,93.923c51.878,1.356,94.601-40.35,94.601-91.889
	v-47.47C346.363,130.543,323.645,107.825,295.502,107.825z"/>
<g>
</g>
<g>
</g>
<g>
</g>
<g>
</g>
<g>
</g>
<g>
</g>
<g>
</g>
<g>
</g>
<g>
</g>
<g>
</g>
<g>
</g>
<g>
</g>
<g>
</g>
<g>
</g>
<g>
</g>
</svg>
