<?xml version="1.0" encoding="iso-8859-1"?>
<!-- Generator: Adobe Illustrator 19.0.0, SVG Export Plug-In . SVG Version: 6.00 Build 0)  -->
<svg version="1.1" id="Layer_1" xmlns="http://www.w3.org/2000/svg" xmlns:xlink="http://www.w3.org/1999/xlink" x="0px" y="0px"
	 viewBox="0 0 505 505" style="enable-background:new 0 0 505 505;" xml:space="preserve">
<circle style="fill:#FD8469;" cx="252.5" cy="252.5" r="252.5"/>
<polygon style="fill:#FFFFFF;" points="325.6,86.1 325.6,139.7 379.1,139.7 379.1,418.9 125.9,418.9 125.9,86.1 "/>
<polygon style="fill:#E6E9EE;" points="325.6,86.1 379.1,139.7 325.6,139.7 "/>
<path style="fill:#FFD05B;" d="M260.4,267.1l9.7-82c17.8,2.1,35.1,10,48.7,23.6c29.8,29.8,32.1,76.8,6.7,109.2L260.4,267.1z"/>
<path style="fill:#54C0EB;" d="M208.5,352.8l44-69.9l65.1,50.8c-2,2.7-4.3,5.2-6.7,7.6C283.1,369.1,240.4,372.9,208.5,352.8z"/>
<path style="fill:#324A5E;" d="M186.2,333.4c-13.8-13.8-21.7-31.3-23.7-49.4l82.1-9l-44,69.9C195.5,341.7,190.7,337.9,186.2,333.4z"
	/>
<path style="fill:#4CDBC4;" d="M162.5,276.2c-2.6-24,5.3-49,23.7-67.4c18.6-18.6,43.9-26.4,68.1-23.6l-9.7,82L162.5,276.2z"/>
<g>
</g>
<g>
</g>
<g>
</g>
<g>
</g>
<g>
</g>
<g>
</g>
<g>
</g>
<g>
</g>
<g>
</g>
<g>
</g>
<g>
</g>
<g>
</g>
<g>
</g>
<g>
</g>
<g>
</g>
</svg>
